<svg width="196.000000" height="39.000000" viewBox="0 0 196 39" fill="none" xmlns="http://www.w3.org/2000/svg" xmlns:xlink="http://www.w3.org/1999/xlink">
	<defs>
		<clipPath id="clip86_276">
			<rect id="large-logo 1" rx="0.000000" width="194.333328" height="37.333332" transform="translate(0.833333 0.833333)" fill="white" fill-opacity="0"/>
		</clipPath>
	</defs>
	<rect id="large-logo 1" rx="0.000000" width="194.333328" height="37.333332" transform="translate(0.833333 0.833333)" fill="#FFFFFF" fill-opacity="0"/>
	<g clip-path="url(#clip86_276)">
		<path id="Combined-Shape" d="M18.47 1.11L18.47 18.47C18.47 19.12 17.98 19.36 17.53 18.89L0.23 0.97C-0.22 0.51 0.01 0 0.64 0L17.48 0C18.11 0 18.47 0.32 18.47 1.11ZM18.47 20.66L18.47 38.02C18.47 38.67 17.98 38.9 17.53 38.44L0.23 20.52C-0.22 20.05 0.01 19.54 0.64 19.54L17.48 19.54C18.11 19.54 18.47 19.87 18.47 20.66ZM37.44 1.11L37.44 18.47C37.44 19.12 36.94 19.36 36.49 18.89L19.15 0.97C18.7 0.51 18.92 0 19.56 0L36.4 0C37.08 0 37.44 0.32 37.44 1.11ZM37.44 20.66L37.44 38.02C37.44 38.67 36.94 38.9 36.49 38.44L19.15 20.52C18.7 20.05 18.92 19.54 19.56 19.54L36.4 19.54C37.08 19.54 37.44 19.87 37.44 20.66ZM46.76 19.59L51 19.59L51 38.67L46.76 38.67L46.76 19.59ZM58.56 38.67L54.65 38.67L54.65 19.59L59.69 19.59L66.81 33.18L66.85 33.18L66.54 19.59L70.46 19.59L70.46 38.67L65.95 38.67L58.52 24.47L58.43 24.47L58.56 38.67ZM85.46 27.08L85.46 30.62L78.38 30.62L78.38 35.09L86.31 35.09L86.31 38.67L74.15 38.67L74.15 19.59L85.91 19.59L85.91 23.17L78.38 23.17L78.38 27.13L85.46 27.13L85.46 27.08ZM102.62 34.71L103.29 38.11C102.03 38.72 100.37 39 98.34 39C95.23 39 92.8 38.11 91.04 36.39C89.28 34.62 88.38 32.34 88.38 29.41C88.38 26.34 89.33 23.92 91.27 22.05C93.2 20.24 95.68 19.31 98.74 19.31C100.82 19.31 102.39 19.59 103.52 20.19L102.66 23.64C101.54 23.13 100.28 22.89 98.92 22.89C97.08 22.89 95.59 23.45 94.46 24.57C93.34 25.68 92.8 27.22 92.8 29.18C92.8 31.08 93.34 32.62 94.46 33.74C95.55 34.85 97.03 35.41 98.97 35.41C100.28 35.36 101.54 35.13 102.62 34.71ZM122.8 28.94C122.8 31.97 121.94 34.39 120.23 36.2C118.52 38.02 116.22 38.95 113.47 38.95C110.73 38.95 108.56 38.06 106.9 36.2C105.23 34.39 104.42 32.06 104.42 29.22C104.42 26.29 105.28 23.92 107.03 22.05C108.74 20.19 111 19.26 113.74 19.26C116.49 19.26 118.7 20.15 120.37 21.96C121.99 23.82 122.8 26.15 122.8 28.94ZM108.83 29.18C108.83 31.04 109.28 32.57 110.14 33.78C111 34.95 112.17 35.55 113.56 35.55C115.01 35.55 116.13 34.95 117.03 33.78C117.89 32.62 118.34 31.04 118.34 29.13C118.34 27.27 117.93 25.73 117.03 24.57C116.18 23.36 115.01 22.75 113.61 22.75C112.21 22.75 111.04 23.36 110.19 24.57C109.28 25.73 108.83 27.27 108.83 29.18ZM125.64 38.58L125.64 19.87C127.12 19.59 128.97 19.45 131.18 19.45C134.01 19.45 136 19.91 137.21 20.8C138.43 21.68 139.01 22.85 139.01 24.29C139.01 25.17 138.74 26.01 138.25 26.71C137.75 27.41 136.94 27.97 135.95 28.34L135.95 28.38C137.12 28.71 138.02 29.27 138.7 30.11C139.37 30.94 139.69 31.92 139.69 33.08C139.69 34.76 139.01 36.11 137.66 37.23C136.31 38.3 133.83 38.86 130.28 38.86C128.47 38.86 126.94 38.76 125.64 38.58ZM129.83 22.75L129.83 27.13L131.22 27.13C132.35 27.13 133.2 26.89 133.83 26.52C134.42 26.1 134.74 25.55 134.74 24.8C134.74 23.36 133.7 22.61 131.67 22.61C130.82 22.61 130.19 22.66 129.83 22.75ZM129.83 30.25L129.83 35.55C130.05 35.6 130.59 35.64 131.54 35.64C132.71 35.64 133.61 35.41 134.24 34.95C134.92 34.48 135.23 33.78 135.23 32.9C135.23 32.01 134.92 31.36 134.19 30.9C133.52 30.43 132.57 30.2 131.31 30.2L129.83 30.2L129.83 30.25ZM152.39 33.69L146.85 33.69L145.5 38.67L141.09 38.67L146.9 19.59L152.48 19.59L158.47 38.67L153.88 38.67L152.39 33.69ZM147.48 30.48L151.72 30.48C150.59 26.76 149.87 24.2 149.55 22.8L149.51 22.8L148.65 26.43L147.48 30.48ZM164.91 38.67L161 38.67L161 19.59L166.04 19.59L173.16 33.18L173.2 33.18L172.89 19.59L176.81 19.59L176.81 38.67L172.3 38.67L164.82 24.47L164.73 24.47L164.91 38.67ZM180.46 38.67L180.46 19.59L184.64 19.59L184.64 28.01C185.23 27.13 185.73 26.38 186.18 25.73L190.36 19.59L195.64 19.59L189.33 27.69L196 38.67L191.04 38.67L186.27 30.43L184.64 32.43L184.64 38.67L180.46 38.67Z" fill="#006037" fill-opacity="1.000000" fill-rule="evenodd"/>
	</g>
</svg>
